<?xml version="1.0" encoding="UTF-8"?>
<svg id="Layer_2" data-name="Layer 2" xmlns="http://www.w3.org/2000/svg" viewBox="0 0 300 300">
  <defs>
    <style>
      .cls-1 {
        fill: #fff;
      }

      .cls-2 {
        fill: #ddd;
      }

      .cls-3 {
        fill: rgba(221, 221, 221, 0);
        stroke: #fff;
        stroke-width: 4px;
      }
    </style>
  </defs>
  <g id="Layer_1-2" data-name="Layer 1">
    <g>
      <path class="cls-2" d="M0,0H300V300H0V0Z"/>
      <g>
        <g>
          <path class="cls-1" d="M67.05,229.99v-9.57c0-.2,.07-.37,.22-.51,.14-.14,.32-.22,.53-.22h2.36c.19,0,.39,.07,.59,.22,.21,.14,.38,.31,.51,.51l4.84,7.14v-7.15c0-.2,.07-.37,.22-.51,.15-.14,.32-.21,.53-.21h1.38c.21,0,.39,.07,.53,.21,.15,.14,.22,.31,.22,.52v9.57c0,.2-.07,.37-.22,.51-.15,.14-.32,.21-.53,.21h-2.66c-.21,0-.42-.07-.64-.21-.22-.14-.39-.31-.52-.51l-4.43-6.59v6.59c0,.2-.07,.37-.22,.51-.15,.14-.32,.21-.53,.21h-1.41c-.21,0-.39-.07-.54-.21-.15-.14-.22-.31-.22-.51Z"/>
          <path class="cls-1" d="M81.88,229.76c-.83-.74-1.25-1.83-1.25-3.26s.42-2.52,1.25-3.26,2.03-1.1,3.6-1.1,2.76,.37,3.6,1.1c.83,.74,1.25,1.82,1.25,3.26s-.42,2.52-1.25,3.26c-.83,.74-2.03,1.11-3.6,1.11s-2.76-.37-3.6-1.11Zm2.03-5.26c-.33,.41-.5,1.08-.5,1.99s.17,1.58,.5,2c.33,.42,.85,.63,1.57,.63s1.24-.21,1.57-.63c.33-.42,.5-1.09,.5-2s-.17-1.58-.5-1.99c-.33-.42-.86-.62-1.57-.62s-1.24,.21-1.57,.62Z"/>
          <path class="cls-1" d="M97.55,220.69v-.26c0-.27,.08-.49,.24-.65,.16-.16,.39-.24,.68-.24h.99c.28,0,.51,.08,.67,.23,.17,.16,.25,.37,.25,.65v.26c0,.27-.08,.49-.24,.65-.16,.16-.39,.24-.68,.24h-.99c-.28,0-.51-.08-.67-.24-.17-.16-.25-.37-.25-.65Zm.03,9.56v-7.29c0-.14,.05-.25,.14-.34,.09-.09,.21-.13,.35-.13h1.8c.14,0,.26,.04,.35,.13,.09,.09,.14,.2,.14,.33v7.29c0,.14-.05,.25-.14,.34-.09,.09-.21,.13-.35,.13h-1.8c-.14,0-.26-.04-.35-.13-.09-.09-.14-.2-.14-.34Z"/>
          <path class="cls-1" d="M102.36,230.25v-7.48c0-.14,.05-.25,.14-.34,.09-.09,.21-.13,.35-.13h1.8c.14,0,.26,.04,.35,.13s.14,.2,.14,.34v.48c.38-.36,.76-.63,1.13-.83,.37-.19,.82-.29,1.34-.29,1.25,0,2.19,.49,2.83,1.48,.99-.99,2.01-1.48,3.06-1.48,1.05,0,1.87,.3,2.48,.91,.61,.6,.91,1.53,.91,2.79v4.41c0,.14-.05,.25-.14,.34-.09,.09-.21,.13-.35,.13h-1.79c-.14,0-.26-.04-.36-.13-.09-.09-.14-.2-.14-.33v-4.41c0-1.23-.47-1.84-1.4-1.84-.57,0-1.15,.39-1.76,1.18,.03,.22,.05,.44,.05,.66v4.41c0,.14-.05,.25-.14,.34-.09,.09-.21,.13-.35,.13h-1.79c-.14,0-.26-.04-.36-.13-.09-.09-.14-.2-.14-.33v-4.41c0-1.23-.46-1.84-1.39-1.84-.59,0-1.16,.37-1.71,1.1v5.15c0,.14-.05,.25-.14,.34-.09,.09-.21,.13-.35,.13h-1.8c-.14,0-.26-.04-.35-.13-.09-.09-.14-.2-.14-.34Z"/>
          <path class="cls-1" d="M119.42,230.16c-.71-.47-1.06-1.14-1.06-2s.35-1.52,1.06-1.98c.71-.46,1.62-.69,2.74-.69h2.65c0-.6-.13-1.02-.39-1.25-.26-.24-.72-.35-1.38-.35s-1.11,.15-1.38,.46c-.26,.31-.59,.47-.97,.47h-1.19c-.14,0-.26-.04-.36-.13-.09-.09-.14-.2-.14-.33,0-1.47,1.46-2.21,4.37-2.21,1.27,0,2.29,.27,3.06,.82,.77,.55,1.15,1.39,1.15,2.53v4.76c0,.14-.05,.25-.14,.34-.09,.09-.21,.13-.35,.13h-1.55c-.14,0-.26-.04-.35-.13-.09-.09-.14-.2-.14-.33v-.24c-.84,.58-1.82,.87-2.92,.86-1.1,0-2.01-.24-2.72-.71Zm2.93-2.93c-.37,0-.67,.09-.89,.26-.22,.17-.33,.4-.33,.68s.11,.5,.34,.68c.22,.18,.54,.27,.95,.27,.82,0,1.62-.23,2.38-.69v-1.2h-2.46Z"/>
          <path class="cls-1" d="M133.12,230.07c-1.21,0-2.19-.35-2.94-1.05-.75-.7-1.12-1.67-1.12-2.92s.42-2.22,1.27-2.91c.85-.7,2.07-1.05,3.66-1.05,.78,0,1.58,.08,2.41,.25,.83,.17,1.46,.37,1.88,.61v7.12c0,1.14-.39,1.99-1.18,2.53-.79,.55-1.89,.82-3.31,.82s-2.51-.17-3.28-.51c-.77-.34-1.15-.9-1.15-1.69,0-.14,.05-.25,.14-.34,.09-.09,.21-.13,.36-.13h1.19c.38,0,.69,.14,.92,.41,.29,.35,.82,.52,1.57,.52s1.27-.12,1.54-.35c.28-.24,.42-.65,.42-1.25v-.36c-.86,.21-1.65,.32-2.4,.32Zm.71-6.07c-1.27,0-1.9,.7-1.9,2.1s.62,2.11,1.85,2.11c.51,0,1.09-.08,1.74-.23v-3.81c-.46-.12-1.02-.17-1.69-.17Z"/>
          <path class="cls-1" d="M141,229.75c-.82-.75-1.23-1.82-1.23-3.23s.41-2.49,1.24-3.24c.83-.76,1.98-1.13,3.45-1.13s2.62,.37,3.44,1.1c.82,.74,1.23,1.79,1.23,3.16v.44c0,.14-.05,.25-.14,.34s-.21,.13-.36,.13h-6.04c.05,.63,.24,1.09,.57,1.38,.32,.29,.84,.43,1.55,.43s1.2-.15,1.46-.46c.26-.31,.59-.46,.97-.47h1.19c.14,0,.26,.04,.36,.13,.09,.09,.14,.2,.14,.34,0,1.47-1.46,2.2-4.39,2.2-1.48,0-2.62-.37-3.45-1.12Zm1.58-4.05h3.73c-.05-1.21-.67-1.81-1.86-1.81s-1.81,.6-1.87,1.81Z"/>
          <path class="cls-1" d="M156.91,230.16c-.71-.47-1.06-1.14-1.06-2s.35-1.52,1.06-1.98c.71-.46,1.62-.69,2.74-.69h2.65c0-.6-.13-1.02-.39-1.25-.26-.24-.72-.35-1.38-.35s-1.11,.15-1.38,.46c-.26,.31-.59,.47-.97,.47h-1.19c-.14,0-.26-.04-.36-.13-.09-.09-.14-.2-.14-.33,0-1.47,1.46-2.21,4.37-2.21,1.27,0,2.29,.27,3.06,.82,.77,.55,1.15,1.39,1.15,2.53v4.76c0,.14-.05,.25-.14,.34-.09,.09-.21,.13-.35,.13h-1.55c-.14,0-.26-.04-.35-.13-.09-.09-.14-.2-.14-.33v-.24c-.84,.58-1.82,.87-2.92,.86-1.1,0-2.01-.24-2.72-.71Zm2.93-2.93c-.37,0-.67,.09-.89,.26-.22,.17-.32,.4-.32,.68,0,.28,.11,.5,.34,.68,.22,.18,.54,.27,.95,.27,.82,0,1.62-.23,2.38-.69v-1.2h-2.46Z"/>
          <path class="cls-1" d="M166.49,222.29h1.54c.23,0,.45,.06,.65,.19,.2,.13,.35,.29,.43,.49l2.19,4.79,2.18-4.79c.09-.2,.23-.36,.43-.49,.2-.13,.42-.19,.65-.19h1.55c.19,0,.31,.07,.37,.2,.03,.05,.04,.12,.04,.2,0,.08-.03,.17-.08,.28l-3.46,7.07c-.1,.2-.25,.36-.45,.49-.21,.13-.42,.19-.64,.19h-1.18c-.22,0-.43-.06-.63-.19-.2-.13-.35-.29-.45-.49l-3.46-7.07c-.05-.11-.08-.21-.08-.28,0-.26,.14-.39,.41-.39Z"/>
          <path class="cls-1" d="M177.57,230.16c-.71-.47-1.06-1.14-1.06-2s.35-1.52,1.06-1.98c.71-.46,1.62-.69,2.74-.69h2.65c0-.6-.13-1.02-.39-1.25-.26-.24-.72-.35-1.38-.35s-1.11,.15-1.38,.46c-.26,.31-.59,.47-.97,.47h-1.19c-.14,0-.26-.04-.36-.13-.09-.09-.14-.2-.14-.33,0-1.47,1.46-2.21,4.37-2.21,1.27,0,2.29,.27,3.06,.82,.77,.55,1.15,1.39,1.15,2.53v4.76c0,.14-.05,.25-.14,.34-.09,.09-.21,.13-.35,.13h-1.55c-.14,0-.26-.04-.35-.13-.09-.09-.14-.2-.14-.33v-.24c-.84,.58-1.82,.87-2.92,.86-1.1,0-2.01-.24-2.72-.71Zm2.93-2.93c-.37,0-.67,.09-.89,.26-.22,.17-.33,.4-.33,.68s.11,.5,.34,.68c.22,.18,.54,.27,.95,.27,.82,0,1.62-.23,2.38-.69v-1.2h-2.46Z"/>
          <path class="cls-1" d="M188.2,220.69v-.26c0-.27,.08-.49,.24-.65,.16-.16,.39-.24,.68-.24h.99c.28,0,.51,.08,.67,.23,.17,.16,.25,.37,.25,.65v.26c0,.27-.08,.49-.24,.65-.16,.16-.39,.24-.68,.24h-.99c-.28,0-.51-.08-.67-.24-.17-.16-.25-.37-.25-.65Zm.03,9.56v-7.29c0-.14,.05-.25,.14-.34,.09-.09,.21-.13,.35-.13h1.8c.14,0,.26,.04,.35,.13,.09,.09,.14,.2,.14,.33v7.29c0,.14-.05,.25-.14,.34-.09,.09-.21,.13-.35,.13h-1.8c-.14,0-.26-.04-.35-.13-.09-.09-.14-.2-.14-.34Z"/>
          <path class="cls-1" d="M193.01,230.25v-10.07c0-.14,.05-.25,.14-.34,.09-.09,.21-.13,.35-.13h1.8c.14,0,.26,.04,.35,.13,.09,.09,.14,.2,.14,.34v10.07c0,.13-.05,.24-.14,.33-.09,.09-.21,.13-.35,.13h-1.8c-.14,0-.26-.04-.35-.13-.09-.09-.14-.2-.14-.33Z"/>
          <path class="cls-1" d="M198.32,230.16c-.71-.47-1.06-1.14-1.06-2s.35-1.52,1.06-1.98c.71-.46,1.62-.69,2.74-.69h2.65c0-.6-.13-1.02-.39-1.25-.26-.24-.72-.35-1.37-.35s-1.11,.15-1.38,.46c-.26,.31-.59,.47-.97,.47h-1.19c-.14,0-.26-.04-.36-.13-.09-.09-.14-.2-.14-.33,0-1.47,1.46-2.21,4.37-2.21,1.27,0,2.29,.27,3.06,.82,.77,.55,1.15,1.39,1.15,2.53v4.76c0,.14-.05,.25-.14,.34-.09,.09-.21,.13-.35,.13h-1.55c-.14,0-.26-.04-.35-.13-.09-.09-.14-.2-.14-.33v-.24c-.84,.58-1.82,.87-2.92,.86-1.1,0-2.01-.24-2.72-.71Zm2.93-2.93c-.37,0-.67,.09-.89,.26-.22,.17-.32,.4-.32,.68s.11,.5,.34,.68c.22,.18,.54,.27,.95,.27,.82,0,1.62-.23,2.38-.69v-1.2h-2.46Z"/>
          <path class="cls-1" d="M208.46,220.17c0-.14,.05-.25,.14-.34,.09-.09,.21-.13,.35-.13h1.8c.14,0,.26,.04,.35,.13,.09,.09,.14,.2,.14,.34v2.36c.87-.26,1.64-.39,2.32-.39,1.31,0,2.36,.38,3.13,1.13,.77,.75,1.16,1.83,1.16,3.25,0,2.9-1.7,4.36-5.09,4.36-.77,0-1.58-.08-2.41-.25-.83-.17-1.46-.37-1.89-.61v-9.84Zm2.77,4.13v4.53c.46,.12,1.04,.18,1.76,.18s1.22-.2,1.53-.59c.31-.39,.47-1.03,.47-1.91s-.15-1.52-.46-1.92-.83-.6-1.56-.6c-.47,0-1.05,.1-1.74,.31Z"/>
          <path class="cls-1" d="M219.33,230.25v-10.07c0-.14,.05-.25,.14-.34,.09-.09,.21-.13,.35-.13h1.8c.14,0,.26,.04,.35,.13,.09,.09,.14,.2,.14,.34v10.07c0,.13-.05,.24-.14,.33-.09,.09-.21,.13-.35,.13h-1.8c-.14,0-.26-.04-.35-.13-.09-.09-.14-.2-.14-.33Z"/>
          <path class="cls-1" d="M224.82,229.75c-.82-.75-1.23-1.82-1.23-3.23s.41-2.49,1.24-3.24c.83-.76,1.98-1.13,3.45-1.13s2.62,.37,3.44,1.1c.82,.74,1.23,1.79,1.23,3.16v.44c0,.14-.05,.25-.14,.34-.09,.09-.21,.13-.36,.13h-6.04c.05,.63,.24,1.09,.57,1.38,.32,.29,.84,.43,1.55,.43s1.2-.15,1.46-.46c.26-.31,.59-.46,.97-.47h1.19c.14,0,.26,.04,.36,.13s.14,.2,.14,.34c0,1.47-1.46,2.2-4.39,2.2-1.47,0-2.62-.37-3.45-1.12Zm1.58-4.05h3.73c-.05-1.21-.67-1.81-1.86-1.81s-1.81,.6-1.87,1.81Z"/>
        </g>
        <g>
          <g>
            <g>
              <path class="cls-2" d="M76.18,83.02l116.98-16.38c5.83-.82,11.24,3.05,12.09,8.64l11.93,78.28c.85,5.59-3.18,10.78-9.01,11.59l-116.98,16.38c-5.83,.82-11.24-3.05-12.09-8.64l-11.93-78.28c-.85-5.59,3.18-10.78,9.01-11.59Z"/>
              <path class="cls-3" d="M76.18,83.02l116.98-16.38c5.83-.82,11.24,3.05,12.09,8.64l11.93,78.28c.85,5.59-3.18,10.78-9.01,11.59l-116.98,16.38c-5.83,.82-11.24-3.05-12.09-8.64l-11.93-78.28c-.85-5.59,3.18-10.78,9.01-11.59Z"/>
            </g>
            <path class="cls-1" d="M123.59,123.43c-6.97,.98-13.46-3.65-14.47-10.34-1.02-6.69,3.81-12.9,10.79-13.87,6.97-.98,13.46,3.65,14.47,10.34,1.02,6.69-3.81,12.9-10.78,13.87Z"/>
            <path class="cls-1" d="M194.72,155.58l-19.79,2.66-61.42,8.6-13.02,1.68,19.63-35.54,9.32,9.67,18.12-35.47,47.17,48.4Z"/>
          </g>
          <g>
            <g>
              <path class="cls-2" d="M101.45,95.43h118.22c5.89,0,10.66,4.58,10.66,10.22v79.11c0,5.65-4.77,10.22-10.66,10.22H101.45c-5.89,0-10.66-4.58-10.66-10.22V105.65c0-5.65,4.77-10.22,10.66-10.22Z"/>
              <path class="cls-3" d="M101.45,95.43h118.22c5.89,0,10.66,4.58,10.66,10.22v79.11c0,5.65-4.77,10.22-10.66,10.22H101.45c-5.89,0-10.66-4.58-10.66-10.22V105.65c0-5.65,4.77-10.22,10.66-10.22Z"/>
            </g>
            <g>
              <g>
                <path class="cls-1" d="M116.41,152.97v-1.75c0-1.57,.56-2.86,1.69-3.88l16.07-14.36c.66-.55,1.24-.66,1.74-.34,.5,.32,.75,.92,.75,1.8v6.13c0,1.76-.83,3.36-2.49,4.81l-7.51,6.7,7.51,6.74c1.66,1.45,2.49,3.05,2.49,4.81v6.13c0,.88-.25,1.47-.75,1.78-.5,.31-1.08,.2-1.74-.32l-16.07-14.4c-1.13-1-1.69-2.28-1.69-3.85Z"/>
                <path class="cls-1" d="M148.05,129.36v-17.28c0-.24,.15-.43,.46-.59,.31-.15,.69-.23,1.15-.23h5.91c.46,0,.84,.08,1.15,.23,.31,.15,.46,.35,.46,.59v17.28c0,.23-.15,.42-.46,.57-.31,.15-.69,.23-1.15,.23h-5.91c-.46,0-.84-.08-1.15-.23-.31-.15-.46-.35-.46-.57Z"/>
                <path class="cls-1" d="M157.18,133.81v36.54c0,.4-.16,.72-.49,.98-.33,.26-.75,.39-1.26,.39h-14.41c-.49,0-.9-.13-1.23-.39-.33-.26-.49-.58-.49-.98v-6.16c0-.4,.16-.72,.49-.98,.33-.26,.74-.39,1.23-.39h6.95v-21.25h-6.95c-.49,0-.9-.13-1.23-.39-.33-.26-.49-.58-.49-.96v-6.42c0-.38,.16-.7,.49-.96,.33-.26,.74-.39,1.23-.39h14.41c.51,0,.93,.13,1.26,.39,.33,.26,.49,.58,.49,.96Z"/>
              </g>
              <g>
                <path class="cls-1" d="M183.64,152.91v-1.75c0-1.57,.57-2.86,1.7-3.88l16.07-14.36c.66-.55,1.24-.66,1.74-.34s.75,.92,.75,1.8v6.13c0,1.76-.83,3.36-2.49,4.81l-7.51,6.7,7.51,6.74c1.66,1.45,2.49,3.05,2.49,4.81v6.13c0,.88-.25,1.47-.75,1.78-.5,.31-1.08,.2-1.74-.32l-16.07-14.4c-1.13-1-1.7-2.28-1.7-3.85Z"/>
                <path class="cls-1" d="M182.6,151.2v1.75c0,1.57-.57,2.86-1.7,3.88l-16.07,14.36c-.66,.55-1.24,.66-1.74,.34-.5-.32-.75-.92-.75-1.8v-6.13c0-1.76,.83-3.36,2.49-4.81l7.51-6.7-7.51-6.74c-1.66-1.45-2.49-3.05-2.49-4.81v-6.13c0-.88,.25-1.47,.75-1.78,.5-.31,1.08-.2,1.74,.32l16.07,14.4c1.13,1,1.7,2.28,1.7,3.85Z"/>
              </g>
            </g>
          </g>
        </g>
      </g>
    </g>
  </g>
</svg>